<?xml version="1.0" encoding="UTF-8" standalone="no"?><svg xmlns="http://www.w3.org/2000/svg" xmlns:xlink="http://www.w3.org/1999/xlink" contentStyleType="text/css" height="1016px" preserveAspectRatio="none" style="width:1043px;height:1016px;background:#FFFFFF;" version="1.1" viewBox="0 0 1043 1016" width="1043px" zoomAndPan="magnify"><defs/><g><!--class IMage--><g id="elem_IMage"><rect codeLine="1" fill="#F1F1F1" height="64.2969" id="IMage" rx="2.5" ry="2.5" style="stroke:#181818;stroke-width:0.5;" width="168" x="153" y="327.5"/><ellipse cx="211.25" cy="343.5" fill="#B4A7E5" rx="11" ry="11" style="stroke:#181818;stroke-width:1.0;"/><path d="M212.2031,340.2813 L213.9219,340.2813 C214.3125,340.2813 214.5,340.25 214.625,340.1719 C214.8906,340.0156 215.0313,339.7344 215.0313,339.4375 C215.0313,339.1719 214.9219,338.9063 214.6875,338.7344 C214.5156,338.625 214.375,338.5938 213.9219,338.5938 L208.7813,338.5938 C208.3438,338.5938 208.2188,338.6094 208.0625,338.7031 C207.8125,338.8594 207.6563,339.1563 207.6563,339.4375 C207.6563,339.7188 207.7969,339.9688 208.0156,340.1406 C208.1719,340.25 208.3594,340.2813 208.7813,340.2813 L210.5,340.2813 L210.5,346.7969 L208.7813,346.7969 C208.3438,346.7969 208.2188,346.8125 208.0625,346.9219 C207.8125,347.0781 207.6563,347.3594 207.6563,347.6563 C207.6563,347.9063 207.7969,348.1719 208.0156,348.3281 C208.1719,348.4531 208.375,348.5 208.7813,348.5 L213.9219,348.5 C214.6719,348.5 215.0313,348.2188 215.0313,347.6563 C215.0313,347.375 214.9219,347.125 214.6875,346.9531 C214.5156,346.8281 214.375,346.7969 213.9219,346.7969 L212.2031,346.7969 L212.2031,340.2813 Z " fill="#000000"/><text fill="#000000" font-family="sans-serif" font-size="14" font-style="italic" lengthAdjust="spacing" textLength="43" x="231.75" y="348.3467">IMage</text><line style="stroke:#181818;stroke-width:0.5;" x1="154" x2="320" y1="359.5" y2="359.5"/><line style="stroke:#181818;stroke-width:0.5;" x1="154" x2="320" y1="367.5" y2="367.5"/><ellipse cx="164" cy="381.1484" fill="#84BE84" rx="3" ry="3" style="stroke:#038048;stroke-width:1.0;"/><text fill="#000000" font-family="sans-serif" font-size="14" lengthAdjust="spacing" textLength="142" x="173" y="384.4951">fireBallAtack(): void</text></g><!--class IMob--><g id="elem_IMob"><rect codeLine="5" fill="#F1F1F1" height="194.6719" id="IMob" rx="2.5" ry="2.5" style="stroke:#181818;stroke-width:0.5;" width="291" x="356.5" y="7"/><ellipse cx="480.75" cy="23" fill="#B4A7E5" rx="11" ry="11" style="stroke:#181818;stroke-width:1.0;"/><path d="M481.7031,19.7813 L483.4219,19.7813 C483.8125,19.7813 484,19.75 484.125,19.6719 C484.3906,19.5156 484.5313,19.2344 484.5313,18.9375 C484.5313,18.6719 484.4219,18.4063 484.1875,18.2344 C484.0156,18.125 483.875,18.0938 483.4219,18.0938 L478.2813,18.0938 C477.8438,18.0938 477.7188,18.1094 477.5625,18.2031 C477.3125,18.3594 477.1563,18.6563 477.1563,18.9375 C477.1563,19.2188 477.2969,19.4688 477.5156,19.6406 C477.6719,19.75 477.8594,19.7813 478.2813,19.7813 L480,19.7813 L480,26.2969 L478.2813,26.2969 C477.8438,26.2969 477.7188,26.3125 477.5625,26.4219 C477.3125,26.5781 477.1563,26.8594 477.1563,27.1563 C477.1563,27.4063 477.2969,27.6719 477.5156,27.8281 C477.6719,27.9531 477.875,28 478.2813,28 L483.4219,28 C484.1719,28 484.5313,27.7188 484.5313,27.1563 C484.5313,26.875 484.4219,26.625 484.1875,26.4531 C484.0156,26.3281 483.875,26.2969 483.4219,26.2969 L481.7031,26.2969 L481.7031,19.7813 Z " fill="#000000"/><text fill="#000000" font-family="sans-serif" font-size="14" font-style="italic" lengthAdjust="spacing" textLength="34" x="501.25" y="27.8467">IMob</text><line style="stroke:#181818;stroke-width:0.5;" x1="357.5" x2="646.5" y1="39" y2="39"/><ellipse cx="367.5" cy="52.6484" fill="none" rx="3" ry="3" style="stroke:#038048;stroke-width:1.0;"/><text fill="#000000" font-family="sans-serif" font-size="14" lengthAdjust="spacing" textLength="126" x="376.5" y="55.9951">damage : number</text><ellipse cx="367.5" cy="68.9453" fill="none" rx="3" ry="3" style="stroke:#038048;stroke-width:1.0;"/><text fill="#000000" font-family="sans-serif" font-size="14" lengthAdjust="spacing" textLength="128" x="376.5" y="72.292">defence : number</text><ellipse cx="367.5" cy="85.2422" fill="none" rx="3" ry="3" style="stroke:#038048;stroke-width:1.0;"/><text fill="#000000" font-family="sans-serif" font-size="14" lengthAdjust="spacing" textLength="88" x="376.5" y="88.5889">hp : number</text><ellipse cx="367.5" cy="101.5391" fill="none" rx="3" ry="3" style="stroke:#038048;stroke-width:1.0;"/><text fill="#000000" font-family="sans-serif" font-size="14" lengthAdjust="spacing" textLength="116" x="376.5" y="104.8857">opponent : Mob</text><ellipse cx="367.5" cy="117.8359" fill="none" rx="3" ry="3" style="stroke:#038048;stroke-width:1.0;"/><text fill="#000000" font-family="sans-serif" font-size="14" lengthAdjust="spacing" textLength="179" x="376.5" y="121.1826">coordinates : IMovement</text><line style="stroke:#181818;stroke-width:0.5;" x1="357.5" x2="646.5" y1="128.4844" y2="128.4844"/><ellipse cx="367.5" cy="142.1328" fill="#84BE84" rx="3" ry="3" style="stroke:#038048;stroke-width:1.0;"/><text fill="#000000" font-family="sans-serif" font-size="14" lengthAdjust="spacing" textLength="264" x="376.5" y="145.4795">move(coordinates: IMovement): void</text><ellipse cx="367.5" cy="158.4297" fill="#84BE84" rx="3" ry="3" style="stroke:#038048;stroke-width:1.0;"/><text fill="#000000" font-family="sans-serif" font-size="14" lengthAdjust="spacing" textLength="265" x="376.5" y="161.7764">lockOpponent(opponent: Mob): void</text><ellipse cx="367.5" cy="174.7266" fill="#84BE84" rx="3" ry="3" style="stroke:#038048;stroke-width:1.0;"/><text fill="#000000" font-family="sans-serif" font-size="14" lengthAdjust="spacing" textLength="96" x="376.5" y="178.0732">attack(): void</text><ellipse cx="367.5" cy="191.0234" fill="#84BE84" rx="3" ry="3" style="stroke:#038048;stroke-width:1.0;"/><text fill="#000000" font-family="sans-serif" font-size="14" lengthAdjust="spacing" textLength="100" x="376.5" y="194.3701">defend(): void</text></g><!--class IWise--><g id="elem_IWise"><rect codeLine="17" fill="#F1F1F1" height="64.2969" id="IWise" rx="2.5" ry="2.5" style="stroke:#181818;stroke-width:0.5;" width="136" x="105" y="533.5"/><ellipse cx="149.75" cy="549.5" fill="#B4A7E5" rx="11" ry="11" style="stroke:#181818;stroke-width:1.0;"/><path d="M150.7031,546.2813 L152.4219,546.2813 C152.8125,546.2813 153,546.25 153.125,546.1719 C153.3906,546.0156 153.5313,545.7344 153.5313,545.4375 C153.5313,545.1719 153.4219,544.9063 153.1875,544.7344 C153.0156,544.625 152.875,544.5938 152.4219,544.5938 L147.2813,544.5938 C146.8438,544.5938 146.7188,544.6094 146.5625,544.7031 C146.3125,544.8594 146.1563,545.1563 146.1563,545.4375 C146.1563,545.7188 146.2969,545.9688 146.5156,546.1406 C146.6719,546.25 146.8594,546.2813 147.2813,546.2813 L149,546.2813 L149,552.7969 L147.2813,552.7969 C146.8438,552.7969 146.7188,552.8125 146.5625,552.9219 C146.3125,553.0781 146.1563,553.3594 146.1563,553.6563 C146.1563,553.9063 146.2969,554.1719 146.5156,554.3281 C146.6719,554.4531 146.875,554.5 147.2813,554.5 L152.4219,554.5 C153.1719,554.5 153.5313,554.2188 153.5313,553.6563 C153.5313,553.375 153.4219,553.125 153.1875,552.9531 C153.0156,552.8281 152.875,552.7969 152.4219,552.7969 L150.7031,552.7969 L150.7031,546.2813 Z " fill="#000000"/><text fill="#000000" font-family="sans-serif" font-size="14" font-style="italic" lengthAdjust="spacing" textLength="38" x="170.25" y="554.3467">IWise</text><line style="stroke:#181818;stroke-width:0.5;" x1="106" x2="240" y1="565.5" y2="565.5"/><line style="stroke:#181818;stroke-width:0.5;" x1="106" x2="240" y1="573.5" y2="573.5"/><ellipse cx="116" cy="587.1484" fill="#84BE84" rx="3" ry="3" style="stroke:#038048;stroke-width:1.0;"/><text fill="#000000" font-family="sans-serif" font-size="14" lengthAdjust="spacing" textLength="110" x="125" y="590.4951">summon(): void</text></g><!--class IPet--><g id="elem_IPet"><rect codeLine="21" fill="#F1F1F1" height="113.1875" id="IPet" rx="2.5" ry="2.5" style="stroke:#181818;stroke-width:0.5;" width="176" x="7" y="674"/><ellipse cx="77.75" cy="690" fill="#B4A7E5" rx="11" ry="11" style="stroke:#181818;stroke-width:1.0;"/><path d="M78.7031,686.7813 L80.4219,686.7813 C80.8125,686.7813 81,686.75 81.125,686.6719 C81.3906,686.5156 81.5313,686.2344 81.5313,685.9375 C81.5313,685.6719 81.4219,685.4063 81.1875,685.2344 C81.0156,685.125 80.875,685.0938 80.4219,685.0938 L75.2813,685.0938 C74.8438,685.0938 74.7188,685.1094 74.5625,685.2031 C74.3125,685.3594 74.1563,685.6563 74.1563,685.9375 C74.1563,686.2188 74.2969,686.4688 74.5156,686.6406 C74.6719,686.75 74.8594,686.7813 75.2813,686.7813 L77,686.7813 L77,693.2969 L75.2813,693.2969 C74.8438,693.2969 74.7188,693.3125 74.5625,693.4219 C74.3125,693.5781 74.1563,693.8594 74.1563,694.1563 C74.1563,694.4063 74.2969,694.6719 74.5156,694.8281 C74.6719,694.9531 74.875,695 75.2813,695 L80.4219,695 C81.1719,695 81.5313,694.7188 81.5313,694.1563 C81.5313,693.875 81.4219,693.625 81.1875,693.4531 C81.0156,693.3281 80.875,693.2969 80.4219,693.2969 L78.7031,693.2969 L78.7031,686.7813 Z " fill="#000000"/><text fill="#000000" font-family="sans-serif" font-size="14" font-style="italic" lengthAdjust="spacing" textLength="26" x="98.25" y="694.8467">IPet</text><line style="stroke:#181818;stroke-width:0.5;" x1="8" x2="182" y1="706" y2="706"/><ellipse cx="18" cy="719.6484" fill="none" rx="3" ry="3" style="stroke:#038048;stroke-width:1.0;"/><text fill="#000000" font-family="sans-serif" font-size="14" lengthAdjust="spacing" textLength="95" x="27" y="722.9951">name : string</text><line style="stroke:#181818;stroke-width:0.5;" x1="8" x2="182" y1="730.2969" y2="730.2969"/><ellipse cx="18" cy="743.9453" fill="#84BE84" rx="3" ry="3" style="stroke:#038048;stroke-width:1.0;"/><text fill="#000000" font-family="sans-serif" font-size="14" lengthAdjust="spacing" textLength="73" x="27" y="747.292">eat(): void</text><ellipse cx="18" cy="760.2422" fill="#84BE84" rx="3" ry="3" style="stroke:#038048;stroke-width:1.0;"/><text fill="#000000" font-family="sans-serif" font-size="14" lengthAdjust="spacing" textLength="150" x="27" y="763.5889">updateHungry(): void</text><ellipse cx="18" cy="776.5391" fill="#84BE84" rx="3" ry="3" style="stroke:#038048;stroke-width:1.0;"/><text fill="#000000" font-family="sans-serif" font-size="14" lengthAdjust="spacing" textLength="147" x="27" y="779.8857">updateHumor(): void</text></g><!--class IMovement--><g id="elem_IMovement"><rect codeLine="28" fill="#F1F1F1" height="96.8906" id="IMovement" rx="2.5" ry="2.5" style="stroke:#181818;stroke-width:0.5;" width="111" x="621.5" y="517"/><ellipse cx="636.5" cy="533" fill="#B4A7E5" rx="11" ry="11" style="stroke:#181818;stroke-width:1.0;"/><path d="M637.4531,529.7813 L639.1719,529.7813 C639.5625,529.7813 639.75,529.75 639.875,529.6719 C640.1406,529.5156 640.2813,529.2344 640.2813,528.9375 C640.2813,528.6719 640.1719,528.4063 639.9375,528.2344 C639.7656,528.125 639.625,528.0938 639.1719,528.0938 L634.0313,528.0938 C633.5938,528.0938 633.4688,528.1094 633.3125,528.2031 C633.0625,528.3594 632.9063,528.6563 632.9063,528.9375 C632.9063,529.2188 633.0469,529.4688 633.2656,529.6406 C633.4219,529.75 633.6094,529.7813 634.0313,529.7813 L635.75,529.7813 L635.75,536.2969 L634.0313,536.2969 C633.5938,536.2969 633.4688,536.3125 633.3125,536.4219 C633.0625,536.5781 632.9063,536.8594 632.9063,537.1563 C632.9063,537.4063 633.0469,537.6719 633.2656,537.8281 C633.4219,537.9531 633.625,538 634.0313,538 L639.1719,538 C639.9219,538 640.2813,537.7188 640.2813,537.1563 C640.2813,536.875 640.1719,536.625 639.9375,536.4531 C639.7656,536.3281 639.625,536.2969 639.1719,536.2969 L637.4531,536.2969 L637.4531,529.7813 Z " fill="#000000"/><text fill="#000000" font-family="sans-serif" font-size="14" font-style="italic" lengthAdjust="spacing" textLength="79" x="650.5" y="537.8467">IMovement</text><line style="stroke:#181818;stroke-width:0.5;" x1="622.5" x2="731.5" y1="549" y2="549"/><ellipse cx="632.5" cy="562.6484" fill="none" rx="3" ry="3" style="stroke:#038048;stroke-width:1.0;"/><text fill="#000000" font-family="sans-serif" font-size="14" lengthAdjust="spacing" textLength="77" x="641.5" y="565.9951">x : number</text><ellipse cx="632.5" cy="578.9453" fill="none" rx="3" ry="3" style="stroke:#038048;stroke-width:1.0;"/><text fill="#000000" font-family="sans-serif" font-size="14" lengthAdjust="spacing" textLength="77" x="641.5" y="582.292">y : number</text><ellipse cx="632.5" cy="595.2422" fill="none" rx="3" ry="3" style="stroke:#038048;stroke-width:1.0;"/><text fill="#000000" font-family="sans-serif" font-size="14" lengthAdjust="spacing" textLength="77" x="641.5" y="598.5889">z : number</text><line style="stroke:#181818;stroke-width:0.5;" x1="622.5" x2="731.5" y1="605.8906" y2="605.8906"/></g><!--class IDragon--><g id="elem_IDragon"><rect codeLine="34" fill="#F1F1F1" height="64.2969" id="IDragon" rx="2.5" ry="2.5" style="stroke:#181818;stroke-width:0.5;" width="268" x="763" y="327.5"/><ellipse cx="864.25" cy="343.5" fill="#B4A7E5" rx="11" ry="11" style="stroke:#181818;stroke-width:1.0;"/><path d="M865.2031,340.2813 L866.9219,340.2813 C867.3125,340.2813 867.5,340.25 867.625,340.1719 C867.8906,340.0156 868.0313,339.7344 868.0313,339.4375 C868.0313,339.1719 867.9219,338.9063 867.6875,338.7344 C867.5156,338.625 867.375,338.5938 866.9219,338.5938 L861.7813,338.5938 C861.3438,338.5938 861.2188,338.6094 861.0625,338.7031 C860.8125,338.8594 860.6563,339.1563 860.6563,339.4375 C860.6563,339.7188 860.7969,339.9688 861.0156,340.1406 C861.1719,340.25 861.3594,340.2813 861.7813,340.2813 L863.5,340.2813 L863.5,346.7969 L861.7813,346.7969 C861.3438,346.7969 861.2188,346.8125 861.0625,346.9219 C860.8125,347.0781 860.6563,347.3594 860.6563,347.6563 C860.6563,347.9063 860.7969,348.1719 861.0156,348.3281 C861.1719,348.4531 861.375,348.5 861.7813,348.5 L866.9219,348.5 C867.6719,348.5 868.0313,348.2188 868.0313,347.6563 C868.0313,347.375 867.9219,347.125 867.6875,346.9531 C867.5156,346.8281 867.375,346.7969 866.9219,346.7969 L865.2031,346.7969 L865.2031,340.2813 Z " fill="#000000"/><text fill="#000000" font-family="sans-serif" font-size="14" font-style="italic" lengthAdjust="spacing" textLength="57" x="884.75" y="348.3467">IDragon</text><line style="stroke:#181818;stroke-width:0.5;" x1="764" x2="1030" y1="359.5" y2="359.5"/><line style="stroke:#181818;stroke-width:0.5;" x1="764" x2="1030" y1="367.5" y2="367.5"/><ellipse cx="774" cy="381.1484" fill="#84BE84" rx="3" ry="3" style="stroke:#038048;stroke-width:1.0;"/><text fill="#000000" font-family="sans-serif" font-size="14" lengthAdjust="spacing" textLength="242" x="783" y="384.4951">fly(coordinates: IMovement): void</text></g><!--class Wise--><g id="elem_Wise"><rect codeLine="38" fill="#F1F1F1" height="96.8906" id="Wise" rx="2.5" ry="2.5" style="stroke:#181818;stroke-width:0.5;" width="168" x="304" y="682"/><ellipse cx="366.75" cy="698" fill="#ADD1B2" rx="11" ry="11" style="stroke:#181818;stroke-width:1.0;"/><path d="M369.0938,693.6719 C368.1563,693.2344 367.5625,693.0938 366.6875,693.0938 C364.0625,693.0938 362.0625,695.1719 362.0625,697.8906 L362.0625,699.0156 C362.0625,701.5938 364.1719,703.4844 367.0625,703.4844 C368.2813,703.4844 369.4375,703.1875 370.1875,702.6406 C370.7656,702.2344 371.0938,701.7813 371.0938,701.3906 C371.0938,700.9375 370.7031,700.5469 370.2344,700.5469 C370.0156,700.5469 369.8125,700.625 369.625,700.8125 C369.1719,701.2969 369.1719,701.2969 368.9844,701.3906 C368.5625,701.6563 367.875,701.7813 367.1094,701.7813 C365.0625,701.7813 363.7656,700.6875 363.7656,698.9844 L363.7656,697.8906 C363.7656,696.1094 365.0156,694.7969 366.75,694.7969 C367.3281,694.7969 367.9375,694.9531 368.4063,695.2031 C368.8906,695.4844 369.0625,695.7031 369.1563,696.1094 C369.2188,696.5156 369.25,696.6406 369.3906,696.7656 C369.5313,696.9063 369.7656,697.0156 369.9844,697.0156 C370.25,697.0156 370.5156,696.875 370.6875,696.6563 C370.7969,696.5 370.8281,696.3125 370.8281,695.8906 L370.8281,694.4688 C370.8281,694.0313 370.8125,693.9063 370.7188,693.75 C370.5625,693.4844 370.2813,693.3438 369.9844,693.3438 C369.6875,693.3438 369.4844,693.4375 369.2656,693.75 L369.0938,693.6719 Z " fill="#000000"/><text fill="#000000" font-family="sans-serif" font-size="14" lengthAdjust="spacing" textLength="34" x="387.25" y="702.8467">Wise</text><line style="stroke:#181818;stroke-width:0.5;" x1="305" x2="471" y1="714" y2="714"/><ellipse cx="315" cy="727.6484" fill="none" rx="3" ry="3" style="stroke:#038048;stroke-width:1.0;"/><text fill="#000000" font-family="sans-serif" font-size="14" lengthAdjust="spacing" textLength="64" x="324" y="730.9951">pet : Pet</text><line style="stroke:#181818;stroke-width:0.5;" x1="305" x2="471" y1="738.2969" y2="738.2969"/><ellipse cx="315" cy="751.9453" fill="#84BE84" rx="3" ry="3" style="stroke:#038048;stroke-width:1.0;"/><text fill="#000000" font-family="sans-serif" font-size="14" lengthAdjust="spacing" textLength="110" x="324" y="755.292">summon(): void</text><ellipse cx="315" cy="768.2422" fill="#84BE84" rx="3" ry="3" style="stroke:#038048;stroke-width:1.0;"/><text fill="#000000" font-family="sans-serif" font-size="14" lengthAdjust="spacing" textLength="142" x="324" y="771.5889">fireBallAtack(): void</text></g><!--class Mob--><g id="elem_Mob"><rect codeLine="44" fill="#F1F1F1" height="194.6719" id="Mob" rx="2.5" ry="2.5" style="stroke:#181818;stroke-width:0.5;" width="291" x="356.5" y="262"/><ellipse cx="482.25" cy="278" fill="#ADD1B2" rx="11" ry="11" style="stroke:#181818;stroke-width:1.0;"/><path d="M484.5938,273.6719 C483.6563,273.2344 483.0625,273.0938 482.1875,273.0938 C479.5625,273.0938 477.5625,275.1719 477.5625,277.8906 L477.5625,279.0156 C477.5625,281.5938 479.6719,283.4844 482.5625,283.4844 C483.7813,283.4844 484.9375,283.1875 485.6875,282.6406 C486.2656,282.2344 486.5938,281.7813 486.5938,281.3906 C486.5938,280.9375 486.2031,280.5469 485.7344,280.5469 C485.5156,280.5469 485.3125,280.625 485.125,280.8125 C484.6719,281.2969 484.6719,281.2969 484.4844,281.3906 C484.0625,281.6563 483.375,281.7813 482.6094,281.7813 C480.5625,281.7813 479.2656,280.6875 479.2656,278.9844 L479.2656,277.8906 C479.2656,276.1094 480.5156,274.7969 482.25,274.7969 C482.8281,274.7969 483.4375,274.9531 483.9063,275.2031 C484.3906,275.4844 484.5625,275.7031 484.6563,276.1094 C484.7188,276.5156 484.75,276.6406 484.8906,276.7656 C485.0313,276.9063 485.2656,277.0156 485.4844,277.0156 C485.75,277.0156 486.0156,276.875 486.1875,276.6563 C486.2969,276.5 486.3281,276.3125 486.3281,275.8906 L486.3281,274.4688 C486.3281,274.0313 486.3125,273.9063 486.2188,273.75 C486.0625,273.4844 485.7813,273.3438 485.4844,273.3438 C485.1875,273.3438 484.9844,273.4375 484.7656,273.75 L484.5938,273.6719 Z " fill="#000000"/><text fill="#000000" font-family="sans-serif" font-size="14" lengthAdjust="spacing" textLength="31" x="502.75" y="282.8467">Mob</text><line style="stroke:#181818;stroke-width:0.5;" x1="357.5" x2="646.5" y1="294" y2="294"/><ellipse cx="367.5" cy="307.6484" fill="none" rx="3" ry="3" style="stroke:#038048;stroke-width:1.0;"/><text fill="#000000" font-family="sans-serif" font-size="14" lengthAdjust="spacing" textLength="179" x="376.5" y="310.9951">coordinates : IMovement</text><ellipse cx="367.5" cy="323.9453" fill="none" rx="3" ry="3" style="stroke:#038048;stroke-width:1.0;"/><text fill="#000000" font-family="sans-serif" font-size="14" lengthAdjust="spacing" textLength="116" x="376.5" y="327.292">opponent : Mob</text><ellipse cx="367.5" cy="340.2422" fill="none" rx="3" ry="3" style="stroke:#038048;stroke-width:1.0;"/><text fill="#000000" font-family="sans-serif" font-size="14" lengthAdjust="spacing" textLength="88" x="376.5" y="343.5889">hp : number</text><ellipse cx="367.5" cy="356.5391" fill="none" rx="3" ry="3" style="stroke:#038048;stroke-width:1.0;"/><text fill="#000000" font-family="sans-serif" font-size="14" lengthAdjust="spacing" textLength="126" x="376.5" y="359.8857">damage : number</text><ellipse cx="367.5" cy="372.8359" fill="none" rx="3" ry="3" style="stroke:#038048;stroke-width:1.0;"/><text fill="#000000" font-family="sans-serif" font-size="14" lengthAdjust="spacing" textLength="128" x="376.5" y="376.1826">defence : number</text><line style="stroke:#181818;stroke-width:0.5;" x1="357.5" x2="646.5" y1="383.4844" y2="383.4844"/><ellipse cx="367.5" cy="397.1328" fill="#84BE84" rx="3" ry="3" style="stroke:#038048;stroke-width:1.0;"/><text fill="#000000" font-family="sans-serif" font-size="14" lengthAdjust="spacing" textLength="264" x="376.5" y="400.4795">move(coordinates: IMovement): void</text><ellipse cx="367.5" cy="413.4297" fill="#84BE84" rx="3" ry="3" style="stroke:#038048;stroke-width:1.0;"/><text fill="#000000" font-family="sans-serif" font-size="14" lengthAdjust="spacing" textLength="265" x="376.5" y="416.7764">lockOpponent(opponent: Mob): void</text><ellipse cx="367.5" cy="429.7266" fill="#84BE84" rx="3" ry="3" style="stroke:#038048;stroke-width:1.0;"/><text fill="#000000" font-family="sans-serif" font-size="14" lengthAdjust="spacing" textLength="96" x="376.5" y="433.0732">attack(): void</text><ellipse cx="367.5" cy="446.0234" fill="#84BE84" rx="3" ry="3" style="stroke:#038048;stroke-width:1.0;"/><text fill="#000000" font-family="sans-serif" font-size="14" lengthAdjust="spacing" textLength="100" x="376.5" y="449.3701">defend(): void</text></g><!--class Pet--><g id="elem_Pet"><rect codeLine="56" fill="#F1F1F1" height="162.0781" id="Pet" rx="2.5" ry="2.5" style="stroke:#181818;stroke-width:0.5;" width="176" x="300" y="847"/><ellipse cx="371.25" cy="863" fill="#ADD1B2" rx="11" ry="11" style="stroke:#181818;stroke-width:1.0;"/><path d="M373.5938,858.6719 C372.6563,858.2344 372.0625,858.0938 371.1875,858.0938 C368.5625,858.0938 366.5625,860.1719 366.5625,862.8906 L366.5625,864.0156 C366.5625,866.5938 368.6719,868.4844 371.5625,868.4844 C372.7813,868.4844 373.9375,868.1875 374.6875,867.6406 C375.2656,867.2344 375.5938,866.7813 375.5938,866.3906 C375.5938,865.9375 375.2031,865.5469 374.7344,865.5469 C374.5156,865.5469 374.3125,865.625 374.125,865.8125 C373.6719,866.2969 373.6719,866.2969 373.4844,866.3906 C373.0625,866.6563 372.375,866.7813 371.6094,866.7813 C369.5625,866.7813 368.2656,865.6875 368.2656,863.9844 L368.2656,862.8906 C368.2656,861.1094 369.5156,859.7969 371.25,859.7969 C371.8281,859.7969 372.4375,859.9531 372.9063,860.2031 C373.3906,860.4844 373.5625,860.7031 373.6563,861.1094 C373.7188,861.5156 373.75,861.6406 373.8906,861.7656 C374.0313,861.9063 374.2656,862.0156 374.4844,862.0156 C374.75,862.0156 375.0156,861.875 375.1875,861.6563 C375.2969,861.5 375.3281,861.3125 375.3281,860.8906 L375.3281,859.4688 C375.3281,859.0313 375.3125,858.9063 375.2188,858.75 C375.0625,858.4844 374.7813,858.3438 374.4844,858.3438 C374.1875,858.3438 373.9844,858.4375 373.7656,858.75 L373.5938,858.6719 Z " fill="#000000"/><text fill="#000000" font-family="sans-serif" font-size="14" lengthAdjust="spacing" textLength="25" x="391.75" y="867.8467">Pet</text><line style="stroke:#181818;stroke-width:0.5;" x1="301" x2="475" y1="879" y2="879"/><ellipse cx="311" cy="892.6484" fill="none" rx="3" ry="3" style="stroke:#038048;stroke-width:1.0;"/><text fill="#000000" font-family="sans-serif" font-size="14" lengthAdjust="spacing" textLength="95" x="320" y="895.9951">name : string</text><ellipse cx="311" cy="908.9453" fill="none" rx="3" ry="3" style="stroke:#038048;stroke-width:1.0;"/><text fill="#000000" font-family="sans-serif" font-size="14" lengthAdjust="spacing" textLength="115" x="320" y="912.292">humor : number</text><ellipse cx="311" cy="925.2422" fill="none" rx="3" ry="3" style="stroke:#038048;stroke-width:1.0;"/><text fill="#000000" font-family="sans-serif" font-size="14" lengthAdjust="spacing" textLength="118" x="320" y="928.5889">hungry : number</text><ellipse cx="311" cy="941.5391" fill="none" rx="3" ry="3" style="stroke:#038048;stroke-width:1.0;"/><text fill="#000000" font-family="sans-serif" font-size="14" lengthAdjust="spacing" textLength="88" x="320" y="944.8857">hp : number</text><line style="stroke:#181818;stroke-width:0.5;" x1="301" x2="475" y1="952.1875" y2="952.1875"/><ellipse cx="311" cy="965.8359" fill="#84BE84" rx="3" ry="3" style="stroke:#038048;stroke-width:1.0;"/><text fill="#000000" font-family="sans-serif" font-size="14" lengthAdjust="spacing" textLength="73" x="320" y="969.1826">eat(): void</text><ellipse cx="311" cy="982.1328" fill="#84BE84" rx="3" ry="3" style="stroke:#038048;stroke-width:1.0;"/><text fill="#000000" font-family="sans-serif" font-size="14" lengthAdjust="spacing" textLength="150" x="320" y="985.4795">updateHungry(): void</text><ellipse cx="311" cy="998.4297" fill="#84BE84" rx="3" ry="3" style="stroke:#038048;stroke-width:1.0;"/><text fill="#000000" font-family="sans-serif" font-size="14" lengthAdjust="spacing" textLength="147" x="320" y="1001.7764">updateHumor(): void</text></g><!--class Mage--><g id="elem_Mage"><rect codeLine="66" fill="#F1F1F1" height="64.2969" id="Mage" rx="2.5" ry="2.5" style="stroke:#181818;stroke-width:0.5;" width="168" x="276" y="533.5"/><ellipse cx="336.75" cy="549.5" fill="#ADD1B2" rx="11" ry="11" style="stroke:#181818;stroke-width:1.0;"/><path d="M339.0938,545.1719 C338.1563,544.7344 337.5625,544.5938 336.6875,544.5938 C334.0625,544.5938 332.0625,546.6719 332.0625,549.3906 L332.0625,550.5156 C332.0625,553.0938 334.1719,554.9844 337.0625,554.9844 C338.2813,554.9844 339.4375,554.6875 340.1875,554.1406 C340.7656,553.7344 341.0938,553.2813 341.0938,552.8906 C341.0938,552.4375 340.7031,552.0469 340.2344,552.0469 C340.0156,552.0469 339.8125,552.125 339.625,552.3125 C339.1719,552.7969 339.1719,552.7969 338.9844,552.8906 C338.5625,553.1563 337.875,553.2813 337.1094,553.2813 C335.0625,553.2813 333.7656,552.1875 333.7656,550.4844 L333.7656,549.3906 C333.7656,547.6094 335.0156,546.2969 336.75,546.2969 C337.3281,546.2969 337.9375,546.4531 338.4063,546.7031 C338.8906,546.9844 339.0625,547.2031 339.1563,547.6094 C339.2188,548.0156 339.25,548.1406 339.3906,548.2656 C339.5313,548.4063 339.7656,548.5156 339.9844,548.5156 C340.25,548.5156 340.5156,548.375 340.6875,548.1563 C340.7969,548 340.8281,547.8125 340.8281,547.3906 L340.8281,545.9688 C340.8281,545.5313 340.8125,545.4063 340.7188,545.25 C340.5625,544.9844 340.2813,544.8438 339.9844,544.8438 C339.6875,544.8438 339.4844,544.9375 339.2656,545.25 L339.0938,545.1719 Z " fill="#000000"/><text fill="#000000" font-family="sans-serif" font-size="14" lengthAdjust="spacing" textLength="38" x="357.25" y="554.3467">Mage</text><line style="stroke:#181818;stroke-width:0.5;" x1="277" x2="443" y1="565.5" y2="565.5"/><line style="stroke:#181818;stroke-width:0.5;" x1="277" x2="443" y1="573.5" y2="573.5"/><ellipse cx="287" cy="587.1484" fill="#84BE84" rx="3" ry="3" style="stroke:#038048;stroke-width:1.0;"/><text fill="#000000" font-family="sans-serif" font-size="14" lengthAdjust="spacing" textLength="142" x="296" y="590.4951">fireBallAtack(): void</text></g><!--class Dragron--><g id="elem_Dragron"><rect codeLine="70" fill="#F1F1F1" height="64.2969" id="Dragron" rx="2.5" ry="2.5" style="stroke:#181818;stroke-width:0.5;" width="268" x="768" y="533.5"/><ellipse cx="868.75" cy="549.5" fill="#ADD1B2" rx="11" ry="11" style="stroke:#181818;stroke-width:1.0;"/><path d="M871.0938,545.1719 C870.1563,544.7344 869.5625,544.5938 868.6875,544.5938 C866.0625,544.5938 864.0625,546.6719 864.0625,549.3906 L864.0625,550.5156 C864.0625,553.0938 866.1719,554.9844 869.0625,554.9844 C870.2813,554.9844 871.4375,554.6875 872.1875,554.1406 C872.7656,553.7344 873.0938,553.2813 873.0938,552.8906 C873.0938,552.4375 872.7031,552.0469 872.2344,552.0469 C872.0156,552.0469 871.8125,552.125 871.625,552.3125 C871.1719,552.7969 871.1719,552.7969 870.9844,552.8906 C870.5625,553.1563 869.875,553.2813 869.1094,553.2813 C867.0625,553.2813 865.7656,552.1875 865.7656,550.4844 L865.7656,549.3906 C865.7656,547.6094 867.0156,546.2969 868.75,546.2969 C869.3281,546.2969 869.9375,546.4531 870.4063,546.7031 C870.8906,546.9844 871.0625,547.2031 871.1563,547.6094 C871.2188,548.0156 871.25,548.1406 871.3906,548.2656 C871.5313,548.4063 871.7656,548.5156 871.9844,548.5156 C872.25,548.5156 872.5156,548.375 872.6875,548.1563 C872.7969,548 872.8281,547.8125 872.8281,547.3906 L872.8281,545.9688 C872.8281,545.5313 872.8125,545.4063 872.7188,545.25 C872.5625,544.9844 872.2813,544.8438 871.9844,544.8438 C871.6875,544.8438 871.4844,544.9375 871.2656,545.25 L871.0938,545.1719 Z " fill="#000000"/><text fill="#000000" font-family="sans-serif" font-size="14" lengthAdjust="spacing" textLength="58" x="889.25" y="554.3467">Dragron</text><line style="stroke:#181818;stroke-width:0.5;" x1="769" x2="1035" y1="565.5" y2="565.5"/><line style="stroke:#181818;stroke-width:0.5;" x1="769" x2="1035" y1="573.5" y2="573.5"/><ellipse cx="779" cy="587.1484" fill="#84BE84" rx="3" ry="3" style="stroke:#038048;stroke-width:1.0;"/><text fill="#000000" font-family="sans-serif" font-size="14" lengthAdjust="spacing" textLength="242" x="788" y="590.4951">fly(coordinates: IMovement): void</text></g><!--link IMob to Mob--><g id="link_IMob_Mob"><path codeLine="74" d="M489.569,202.231 C489.18,220.083 489.147,238.773 489.47,256.767 " fill="none" id="IMob-to-Mob" style="stroke:#181818;stroke-width:1.0;"/><polygon fill="#181818" points="489.57,261.822,493.3892,252.7438,489.47,256.823,485.3908,252.9038,489.57,261.822" style="stroke:#181818;stroke-width:1.0;"/></g><!--reverse link IMob to Mob--><g id="link_IMob_Mob"><path codeLine="86" d="M515.467,222.646 C515.559,235.759 515.457,249.007 515.161,261.822 " fill="none" id="IMob-backto-Mob" style="stroke:#181818;stroke-width:1.0;"/><polygon fill="none" points="508.462,222.334,515.162,202.231,522.46,222.125,508.462,222.334" style="stroke:#181818;stroke-width:1.0;"/></g><!--link IMob to IMovement--><g id="link_IMob_IMovement"><path codeLine="75" d="M624.957,202.039 C641.026,220.199 655.264,240.355 665,262 C701.49,343.123 694.977,449.194 686.372,511.772 " fill="none" id="IMob-to-IMovement" style="stroke:#181818;stroke-width:1.0;"/><polygon fill="#181818" points="685.642,516.945,690.8601,508.5921,686.3405,511.994,682.9385,507.4745,685.642,516.945" style="stroke:#181818;stroke-width:1.0;"/></g><!--link Wise to Pet--><g id="link_Wise_Pet"><path codeLine="76" d="M388,779.075 C388,797.909 388,820.153 388,841.593 " fill="none" id="Wise-to-Pet" style="stroke:#181818;stroke-width:1.0;"/><polygon fill="#181818" points="388,846.731,392,837.731,388,841.731,384,837.731,388,846.731" style="stroke:#181818;stroke-width:1.0;"/></g><!--link Mob to IMovement--><g id="link_Mob_IMovement"><path codeLine="77" d="M584.888,457.123 C601.478,476.463 618.291,496.062 632.93,513.127 " fill="none" id="Mob-to-IMovement" style="stroke:#181818;stroke-width:1.0;"/><polygon fill="#181818" points="636.214,516.955,633.3889,507.52,632.958,513.1604,627.3176,512.7295,636.214,516.955" style="stroke:#181818;stroke-width:1.0;"/></g><!--reverse link IMob to IMage--><g id="link_IMob_IMage"><path codeLine="78" d="M386.104,216.148 C343.68,256.651 298.948,299.357 269.678,327.302 " fill="none" id="IMob-backto-IMage" style="stroke:#181818;stroke-width:1.0;"/><polygon fill="none" points="381.381,210.979,400.681,202.231,391.048,221.105,381.381,210.979" style="stroke:#181818;stroke-width:1.0;"/></g><!--reverse link IMage to IWise--><g id="link_IMage_IWise"><path codeLine="79" d="M221.113,411.14 C209.087,449.472 192.954,500.897 182.766,533.371 " fill="none" id="IMage-backto-IWise" style="stroke:#181818;stroke-width:1.0;"/><polygon fill="none" points="214.474,408.915,227.14,391.928,227.832,413.106,214.474,408.915" style="stroke:#181818;stroke-width:1.0;"/></g><!--reverse link IMob to IPet--><g id="link_IMob_IPet"><path codeLine="80" d="M337.296,138.724 C264.936,161.581 185.182,199.547 135,262 C38.9476,381.539 62.5301,578.068 81.7396,673.718 " fill="none" id="IMob-backto-IPet" style="stroke:#181818;stroke-width:1.0;"/><polygon fill="none" points="335.322,132.008,356.491,132.951,339.354,145.415,335.322,132.008" style="stroke:#181818;stroke-width:1.0;"/></g><!--reverse link IMob to IDragon--><g id="link_IMob_IDragon"><path codeLine="81" d="M664.799,209.774 C730.891,252.106 802.337,297.868 848.264,327.284 " fill="none" id="IMob-backto-IDragon" style="stroke:#181818;stroke-width:1.0;"/><polygon fill="none" points="660.747,215.491,647.681,198.81,668.298,203.702,660.747,215.491" style="stroke:#181818;stroke-width:1.0;"/></g><!--reverse link Mob to Wise--><g id="link_Mob_Wise"><path codeLine="82" d="M493.102,477.115 C487.192,521.045 477.359,570.801 461,614 C452.011,637.737 437.784,661.809 424.267,681.789 " fill="none" id="Mob-backto-Wise" style="stroke:#181818;stroke-width:1.0;"/><polygon fill="none" points="486.181,476.046,495.588,457.059,500.074,477.768,486.181,476.046" style="stroke:#181818;stroke-width:1.0;"/></g><!--reverse link IWise to Wise--><g id="link_IWise_Wise"><path codeLine="83" d="M229.927,609.659 C259.25,631.89 295.075,659.05 325.201,681.89 " fill="none" id="IWise-backto-Wise" style="stroke:#181818;stroke-width:1.0;"/><polygon fill="none" points="225.654,615.204,213.946,597.543,234.112,604.047,225.654,615.204" style="stroke:#181818;stroke-width:1.0;"/></g><!--reverse link Mob to Pet--><g id="link_Mob_Pet"><path codeLine="84" d="M517.472,477.384 C524.616,565.181 524.854,686.991 489,787 C481.515,807.877 469.919,828.383 457.212,846.987 " fill="none" id="Mob-backto-Pet" style="stroke:#181818;stroke-width:1.0;"/><polygon fill="none" points="510.479,477.779,515.663,457.233,524.423,476.527,510.479,477.779" style="stroke:#181818;stroke-width:1.0;"/></g><!--reverse link IPet to Pet--><g id="link_IPet_Pet"><path codeLine="85" d="M195.431,798.511 C229.398,821.175 267.045,846.294 299.975,868.267 " fill="none" id="IPet-backto-Pet" style="stroke:#181818;stroke-width:1.0;"/><polygon fill="none" points="191.321,804.184,178.57,787.261,199.092,792.539,191.321,804.184" style="stroke:#181818;stroke-width:1.0;"/></g><!--reverse link Mob to Mage--><g id="link_Mob_Mage"><path codeLine="87" d="M423.262,473.617 C407.94,495.628 393.105,516.941 381.656,533.388 " fill="none" id="Mob-backto-Mage" style="stroke:#181818;stroke-width:1.0;"/><polygon fill="none" points="417.571,469.539,434.743,457.123,429.062,477.537,417.571,469.539" style="stroke:#181818;stroke-width:1.0;"/></g><!--reverse link IMage to Mage--><g id="link_IMage_Mage"><path codeLine="88" d="M266.421,409.296 C289.642,447.808 321.335,500.373 341.231,533.371 " fill="none" id="IMage-backto-Mage" style="stroke:#181818;stroke-width:1.0;"/><polygon fill="none" points="260.282,412.67,255.949,391.928,272.271,405.441,260.282,412.67" style="stroke:#181818;stroke-width:1.0;"/></g><!--reverse link Mob to Dragron--><g id="link_Mob_Dragron"><path codeLine="89" d="M665.731,444.003 C727.713,475.613 794.502,509.676 841.203,533.493 " fill="none" id="Mob-backto-Dragron" style="stroke:#181818;stroke-width:1.0;"/><polygon fill="none" points="662.177,450.048,647.541,434.726,668.538,437.576,662.177,450.048" style="stroke:#181818;stroke-width:1.0;"/></g><!--reverse link IDragon to Dragron--><g id="link_IDragon_Dragron"><path codeLine="90" d="M898.261,411.937 C899.198,450.182 900.447,501.121 901.237,533.371 " fill="none" id="IDragon-backto-Dragron" style="stroke:#181818;stroke-width:1.0;"/><polygon fill="none" points="891.263,412.093,897.77,391.928,905.258,411.75,891.263,412.093" style="stroke:#181818;stroke-width:1.0;"/></g><!--SRC=[lLJ9JiCm4BtxAtmiGlc12Y61EC01mOspcqnJgx4TEKv5MFuTppYBtJOj2AaNA_FcpNYMvqZjmAv53lpfMPJmoJY_NaiBzwAgxfp8jukh9TyPMR1lncH4DYlY5aBvCBxakbKhi0J16dIUOfiwCKrT6mtQUT0dGYGtnXPI2mUD1ttw7IXFG9Votul87xc7sZohCldsfK-x6F9J-eWaNDBIK6mnq-IRRC94cbOfesTOh-28f8N2fXjdfIuH0E7YgzgwyEK_jhgqtJ5S6JixxD0kNVEUJB9Bh8_9IZCyM54Q7RPRTMUcwKFpIZGD7_kl0LVb6pqoZ5E22Ma6hPpOyQ4WzXJpIvrTM2kXlra1R72dwJkWxPzw6lyJJJ_mioyvy50LzY-om6VFi-oMbZGQqoPHC0IXL0xT577pbMNXPyFex04CZGcO8JA3WDa813hTDzcZbuBz4LcZ3qkVZBqoo1wz_NnOVti2_W00]--></g></svg>